<svg xmlns="http://www.w3.org/2000/svg" width="1600" height="1000" viewBox="0 0 1600 1000" role="img" aria-label="Roof Garden Área social y asadores">
  <defs>
    <linearGradient id="g" x1="0" y1="0" x2="1" y2="1">
      <stop offset="0%" stop-color="#172554"/>
      <stop offset="58%" stop-color="#283247"/>
      <stop offset="100%" stop-color="#FAF7F0"/>
    </linearGradient>
    <radialGradient id="r" cx="25%" cy="20%" r="80%">
      <stop offset="0%" stop-color="#C9A45C" stop-opacity=".35"/>
      <stop offset="60%" stop-color="#C9A45C" stop-opacity=".08"/>
      <stop offset="100%" stop-color="#C9A45C" stop-opacity="0"/>
    </radialGradient>
    <filter id="shadow" x="-20%" y="-20%" width="140%" height="140%">
      <feDropShadow dx="0" dy="20" stdDeviation="25" flood-color="#000" flood-opacity=".30"/>
    </filter>
  </defs>
  <rect width="1600" height="1000" fill="url(#g)"/>
  <rect width="1600" height="1000" fill="url(#r)"/>
  <g opacity=".16">
    <path d="M150 850 L520 300 L760 700 L970 420 L1450 850 Z" fill="#fff"/>
    <rect x="210" y="240" width="280" height="470" rx="8" fill="#fff"/>
    <rect x="540" y="160" width="340" height="550" rx="8" fill="#fff"/>
    <rect x="930" y="285" width="270" height="425" rx="8" fill="#fff"/>
    <rect x="1240" y="210" width="210" height="500" rx="8" fill="#fff"/>
  </g>
  <g filter="url(#shadow)">
    <rect x="120" y="610" width="1360" height="250" rx="26" fill="#0F172A" opacity=".78"/>
    <path d="M180 678 H550" stroke="#C9A45C" stroke-width="5" stroke-linecap="round"/>
    <text x="180" y="745" font-family="Georgia, 'Times New Roman', serif" font-size="76" fill="#FAF7F0" letter-spacing=".5">Roof Garden</text>
    <text x="180" y="808" font-family="Arial, Helvetica, sans-serif" font-size="34" fill="#E5E7EB">Área social y asadores</text>
  </g>
  <text x="1380" y="80" text-anchor="end" font-family="Arial, Helvetica, sans-serif" font-size="28" fill="#C9A45C" opacity=".85">bellavittoria.mx</text>
</svg>